<svg xmlns="http://www.w3.org/2000/svg" xmlns:xlink="http://www.w3.org/1999/xlink" version="1.1" x="0px" y="0px" viewBox="0 0 100 125" enable-background="new 0 0 100 100" xml:space="preserve"><g><g><path fill-rule="evenodd" clip-rule="evenodd" d="M76.5,24.5h-4v4h4V24.5z M84.5,16.5h-20v20h20V16.5z M80.5,32.5h-12v-12h12V32.5    z M24.5,28.5h4v-4h-4V28.5z M16.5,36.5h20v-20h-20V36.5z M20.5,20.5h12v12h-12V20.5z M76.5,72.5h-4v4h4V72.5z M84.5,64.5h-20v20    h20V64.5z M80.5,80.5h-12v-12h12V80.5z M52.5,28.5h4v-4h4v-4h-4v-4h-12v4h8v4h-4v8h4V28.5z M48.5,32.5h-4v4h4V32.5z M40.5,28.5v4    h4v-4H40.5z M40.5,24.5h4v-4h-4V24.5z M32.5,44.5h-4v4h4V44.5z M48.5,40.5v4h12v-4h-4v-8h-4v8H48.5z M44.5,36.5h-4v8h4V36.5z     M36.5,40.5h-4v4h4V40.5z M20.5,40.5v4h8v-4H20.5z M40.5,48.5v-4h-4v4H40.5z M32.5,52.5h4v-4h-4V52.5z M16.5,48.5h4v-4h-4V48.5z     M16.5,52.5v4h4v-4H16.5z M20.5,56.5v4h4v-4H20.5z M16.5,64.5v8h4v-4h4v-4H16.5z M24.5,72.5h8v-4h-8V72.5z M68.5,52.5v-4h-4v4    H68.5z M40.5,72.5h-4v4h4V72.5z M36.5,76.5h-20v8h4v-4h4v4h4v-4h4v4h12v-4h-8V76.5z M52.5,84.5v-4h-4v4H52.5z M56.5,84.5h4v-4h-4    V84.5z M56.5,56.5h8v-4h-4v-4h-4v4h-4v12h8v-4h-4V56.5z M44.5,80.5h4v-4h-4V80.5z M36.5,64.5h-4v4h8v-8h-4V64.5z M32.5,52.5h-4v-4    h-4v8h4v4h-4v4h8V52.5z M48.5,72.5v4h4v-4h4v4h4v-8h-12v-8h-4v12H48.5z M36.5,56.5h4v4h4v-4h4v-4h-12V56.5z M44.5,48.5h4v-4h-4    V48.5z M48.5,48.5v4h4v-4H48.5z M64.5,48.5v-4h-4v4H64.5z M68.5,40.5h-4v4h4V40.5z M72.5,40.5v8h4v-8H72.5z M72.5,56.5v4h4v-4h4    v-4h4v-8h-4v4h-4v4h-8v4H72.5z M64.5,60.5h4v-4h-4V60.5z M80.5,6.5v4h10v10h4v-14H80.5z M10.5,10.5h10v-4h-14v14h4V10.5z     M10.5,80.5h-4v14h14v-4h-10V80.5z M90.5,90.5h-10v4h14v-14h-4V90.5z M84.5,60.5v-4h-4v4H84.5z"/></g></g><text x="0" y="115" fill="#000000" font-size="5px" font-weight="bold" font-family="'Helvetica Neue', Helvetica, Arial-Unicode, Arial, Sans-serif">Created by Rohith M S</text><text x="0" y="120" fill="#000000" font-size="5px" font-weight="bold" font-family="'Helvetica Neue', Helvetica, Arial-Unicode, Arial, Sans-serif">from the Noun Project</text></svg>